<svg width="155" height="57" viewBox="0 0 155 57" fill="none" xmlns="http://www.w3.org/2000/svg">
<path d="M31.3344 17.7336C31.1829 17.6768 30.9333 17.5256 30.7476 17.413C30.7096 17.39 30.6743 17.3686 30.6431 17.35L29.847 17.4921C30.0402 17.5894 30.2217 17.6808 30.3868 17.7794L30.387 17.7794C30.4127 17.7948 30.4449 17.8143 30.481 17.8361C30.5573 17.8823 30.651 17.9391 30.7386 17.9899C30.8411 18.0493 30.9666 18.1194 31.0829 18.1706M31.3344 17.7336L30.9547 18.059C30.9949 18.1058 31.0397 18.1391 31.0458 18.1437L31.0464 18.1441C31.0585 18.1533 31.071 18.1623 31.0829 18.1706M31.3344 17.7336L31.1589 18.2018C31.1343 18.1926 31.1088 18.1821 31.0829 18.1706M31.3344 17.7336C31.4063 17.8175 34.2275 19.5095 34.3825 19.5996C34.8865 19.8925 37.1142 21.0888 37.6894 21.2577M31.0829 18.1706C31.0869 18.1735 31.0908 18.1762 31.0947 18.1788C31.1256 18.2002 31.1647 18.226 31.2084 18.2542C31.2966 18.3112 31.4164 18.3864 31.5556 18.4728C31.8348 18.646 32.2008 18.8692 32.5681 19.0918C33.3007 19.536 34.049 19.9841 34.1313 20.0319L34.1313 20.032C34.3936 20.1843 35.0848 20.5609 35.7801 20.9195C36.1286 21.0993 36.4825 21.2767 36.7875 21.4207C37.0394 21.5396 37.2818 21.6473 37.4635 21.7101M37.4635 21.7101C37.4273 21.687 37.3927 21.6622 37.3621 21.6357L37.6894 21.2577M37.4635 21.7101C37.5396 21.7587 37.6225 21.7992 37.688 21.8301C37.8034 21.8845 37.9451 21.9441 38.1005 22.0059C38.4121 22.1299 38.8013 22.2712 39.1937 22.4081C39.9778 22.6816 40.7982 22.9456 41.0834 23.0302L41.0835 23.0302C41.6615 23.2016 42.2848 23.3463 42.9061 23.4904L42.9204 23.4938C43.5519 23.6403 44.1843 23.7873 44.7995 23.9661C46.036 24.3254 47.1406 24.7968 47.9404 25.5777M37.4635 21.7101C37.4936 21.7205 37.522 21.7297 37.5485 21.7374L37.6894 21.2577M37.6894 21.2577C37.9756 21.5055 40.6751 22.3875 41.2256 22.5509C41.7891 22.718 42.4001 22.8597 43.0273 23.0053C44.9172 23.4439 46.9551 23.9168 48.2897 25.2199M47.9404 25.5777C47.9404 25.5777 47.9404 25.5777 47.9404 25.5776L48.2897 25.2199M47.9404 25.5777C48.2929 25.9219 48.5584 26.378 48.6992 26.888C48.857 27.4602 48.9154 28.2219 48.9189 28.9M47.9404 25.5777L48.2897 25.2199M48.2897 25.2199C48.7093 25.6297 49.0183 26.165 49.1811 26.755C49.3617 27.4092 49.4189 28.2528 49.419 28.9616M48.9189 28.9C48.9215 28.892 48.9237 28.8851 48.9255 28.8792C48.9269 28.8747 48.9279 28.8712 48.9287 28.8685M48.9189 28.9C48.9126 28.9189 48.9041 28.9437 48.8928 28.9748C48.8612 29.0626 48.8148 29.1831 48.757 29.3287C48.6416 29.6189 48.4862 29.9944 48.3248 30.377C47.998 31.1516 47.6616 31.9199 47.5856 32.0707L47.5855 32.0708C47.512 32.2166 47.4354 32.3937 47.3835 32.5212L47.3835 32.5213C47.3195 32.6787 47.2221 32.8803 47.1151 33.1002L47.1011 33.1288C47.0029 33.3307 46.897 33.5481 46.8239 33.7251M48.9189 28.9C48.919 28.9207 48.919 28.9412 48.919 28.9617L49.419 28.9616M49.419 28.9616L48.9199 28.9313C48.9217 28.9024 48.9262 28.8792 48.9287 28.8685M49.419 28.9616C49.4077 29.1478 48.2031 31.9566 48.032 32.2958C47.9669 32.4251 47.8959 32.5886 47.8467 32.7095C47.7728 32.8914 47.6626 33.1177 47.5543 33.3402C47.4529 33.5486 47.353 33.7537 47.2861 33.9159M48.9287 28.8685C48.9299 28.8643 48.9304 28.8623 48.9304 28.862C48.9304 28.8618 48.9297 28.8641 48.9287 28.8685ZM46.8239 33.7251L47.2861 33.9159M46.8239 33.7251C46.7959 33.7931 46.7706 33.8487 46.7436 33.9046M46.8239 33.7251C46.8239 33.7251 46.8239 33.7251 46.8239 33.7251L47.2861 33.9159M47.2861 33.9159C47.2267 34.0597 47.1762 34.1594 47.1156 34.2791C47.1084 34.2932 47.1011 34.3076 47.0936 34.3224C47.0601 34.3889 47.0312 34.4544 47.0018 34.521C46.9718 34.5889 46.9414 34.6578 46.9051 34.7299C46.8817 34.5841 46.8532 34.4206 46.818 34.2454C46.8134 34.2226 46.8087 34.1995 46.8038 34.1762C46.8038 34.1762 46.8038 34.1761 46.8038 34.176C46.7856 34.0885 46.7656 33.9978 46.7436 33.9046M46.7436 33.9046C46.7209 33.9516 46.697 33.9988 46.6692 34.0537C46.6622 34.0676 46.6549 34.082 46.6473 34.097L46.6472 34.0972C46.6078 34.1754 46.5743 34.2512 46.546 34.3153L46.5431 34.322C46.5128 34.3905 46.4873 34.4481 46.4576 34.5068L46.4558 34.5106L46.3854 34.6531L29.7503 17.4434C27.2677 16.1879 24.5503 15.4965 22.2528 16.9946C21.9174 17.2133 21.5084 17.5163 21.1493 17.8514C20.8127 18.1656 20.5548 18.4761 20.4222 18.746C20.4138 18.7925 20.3965 18.8518 20.3608 18.9126C20.3526 18.9322 20.3427 18.9524 20.3307 18.9727C20.3297 18.9752 20.3286 18.9776 20.3275 18.9801C20.3186 19.0177 20.3023 19.067 20.2724 19.1186C20.2709 19.1223 20.2693 19.1261 20.2676 19.1299C20.2617 19.1549 20.2525 19.1853 20.238 19.2182C20.232 19.2439 20.2225 19.2754 20.2074 19.3095C20.2026 19.3305 20.1959 19.3536 20.1866 19.3777C20.1829 19.4076 20.1753 19.4462 20.16 19.4885C20.1586 19.5199 20.1527 19.5798 20.1262 19.6486C20.1258 19.6912 20.1254 19.7316 20.1249 19.7703C20.1201 20.203 20.1179 20.4055 20.2549 20.848C20.543 21.7786 21.1584 22.7721 21.7269 23.6897C21.8142 23.8307 21.9005 23.9699 21.9842 24.1068L21.9842 24.1068C22.1298 24.3448 22.2805 24.5844 22.4332 24.8273C23.1588 25.9815 23.9311 27.2098 24.4334 28.6952L23.9628 28.8544L24.4334 28.6952C25.4409 31.6743 24.5643 34.8277 22.8903 37.1938C22.5033 37.7409 21.9283 38.46 21.3942 38.9585C21.4116 39.3228 21.4617 39.8929 21.5058 40.3948C21.5288 40.6562 21.5501 40.899 21.5643 41.0847M46.7436 33.9046C46.6069 33.326 46.3918 32.6516 46.0392 32.0511L46.0392 32.0511C45.5643 31.2424 44.7724 30.2852 44.0282 29.6978L44.0282 29.6978C43.9352 29.6245 43.8409 29.5482 43.7445 29.4702C43.4646 29.244 43.1667 29.0031 42.8322 28.7765M42.8322 28.7765C42.4091 28.4898 42.0231 28.2308 41.5675 27.9471M42.8322 28.7765L42.5517 29.1904M42.8322 28.7765C42.8322 28.7765 42.8322 28.7765 42.8322 28.7765L42.5517 29.1904M41.5675 27.9471C39.1606 26.4482 35.6293 24.8962 32.8376 24.1446L32.8376 24.1446C32.7997 24.1344 32.7609 24.124 32.7212 24.1133C31.7748 23.8578 30.3199 23.4652 29.1875 23.5252L29.214 24.0245M41.5675 27.9471C41.5674 27.9471 41.5674 27.9471 41.5674 27.9471L41.3031 28.3716M41.5675 27.9471L41.3031 28.3716M29.214 24.0245L29.1875 23.5252C28.7031 23.5509 28.2972 23.7237 28.0512 24.0835C27.8206 24.4208 27.802 24.8222 27.843 25.1538C27.9248 25.8152 28.2851 26.5253 28.5186 26.9112L28.5186 26.9112C28.6838 27.184 28.8516 27.3655 29.0001 27.5262L29.0063 27.5329C29.1528 27.6914 29.2889 27.8392 29.4456 28.0771L29.4456 28.0771C29.7119 28.4814 29.9275 28.8465 30.116 29.3301L30.116 29.3301C31.31 32.3923 29.8111 35.5531 27.9061 37.9466L27.9061 37.9466C27.7146 38.1872 27.5372 38.3943 27.3539 38.6082C27.2303 38.7525 27.104 38.8998 26.969 39.0627L26.969 39.0627C26.8986 39.1476 26.8309 39.2243 26.7582 39.3067L26.7353 39.3327C26.6552 39.4235 26.5695 39.5213 26.4804 39.6321M29.214 24.0245C30.2639 23.9689 31.652 24.343 32.6195 24.6037C32.6493 24.6117 32.6787 24.6197 32.7076 24.6274M29.214 24.0245C27.684 24.1056 28.5003 25.9153 28.9464 26.6523L32.7076 24.6274M26.4804 39.6321C26.3607 39.7811 26.2402 39.9305 26.1191 40.0805C25.1683 41.2587 24.1888 42.4726 23.3703 43.795M26.4804 39.6321C26.4804 39.6322 26.4804 39.6322 26.4804 39.6322L26.8702 39.9453L26.4804 39.6321ZM23.3703 43.795L23.3457 43.8348C22.8793 44.588 22.4127 45.3418 22.0123 46.1949M23.3703 43.795L23.3704 43.795L23.7951 44.0579L23.3703 43.795ZM22.0123 46.1949L21.7466 43.4796M22.0123 46.1949L22.0301 46.3766L21.1577 42.3188C21.1634 42.5427 21.1841 42.7593 21.2048 42.9772C21.2217 43.1546 21.2387 43.3328 21.2478 43.5165M22.0123 46.1949C21.9836 46.256 21.9553 46.3177 21.9273 46.3798L21.5335 46.4354M21.7466 43.4796C21.7367 43.2881 21.719 43.1025 21.7026 42.9301C21.7007 42.9097 21.6987 42.8894 21.6968 42.8693C21.6782 42.6722 21.6622 42.4903 21.6575 42.3061L21.6572 42.2933L21.6562 42.2805L21.5643 41.0847M21.7466 43.4796C21.7468 43.4837 21.747 43.4877 21.7472 43.4918L21.2478 43.5165M21.7466 43.4796L21.7454 43.4678L21.2478 43.5165M21.5643 41.0847L21.5643 41.0847L21.0658 41.123L21.5643 41.0847ZM21.5335 46.4354L21.2478 43.5165M21.5335 46.4354L21.9193 46.3976C21.9046 46.4304 21.89 46.4634 21.8755 46.4966L21.872 46.5047L21.8687 46.5129L21.6173 47.1478C21.6103 47.0865 21.6034 47.0261 21.5967 46.9675C21.5701 46.7337 21.547 46.5311 21.5335 46.4354ZM32.7076 24.6274C35.4508 25.366 38.9369 26.8979 41.3031 28.3716M32.7076 24.6274L42.5517 29.1904M41.3031 28.3716C41.7502 28.6499 42.1296 28.9044 42.5517 29.1904M28.2973 38.2579C30.2291 35.8309 31.8779 32.4725 30.5819 29.1485L27.7232 38.9458C27.9128 38.7243 28.1029 38.5022 28.2973 38.2579Z" stroke="white"/>
<path d="M25.9707 55.7783C25.8693 55.5055 25.8094 55.1787 25.8137 54.7123L25.8137 54.7123C25.8208 53.9564 26.1418 53.0737 26.5 52.2908C26.8296 51.5705 27.2209 50.8723 27.5148 50.3479L25.9707 55.7783ZM25.9707 55.7783C25.9639 55.7782 25.9571 55.7781 25.9502 55.778C25.6708 55.7733 25.4455 55.7562 25.2962 55.7206L25.2962 55.7206C25.2018 55.6982 25.0689 55.6345 24.9157 55.53C24.7681 55.4293 24.63 55.3103 24.5287 55.2095L25.9707 55.7783ZM22.2614 48.2402L22.7966 46.8891C23.1955 45.9794 23.6826 45.1925 24.2109 44.339L24.222 44.3209L24.2221 44.3209C25.0054 43.0552 25.9436 41.8923 26.8989 40.7081C27.0195 40.5585 27.1404 40.4086 27.2614 40.2581C27.3348 40.1667 27.4073 40.0837 27.4866 39.9938C27.4943 39.9852 27.502 39.9764 27.5098 39.9676C27.5814 39.8865 27.6594 39.7981 27.7402 39.7006L22.2614 48.2402ZM22.2614 48.2402C22.2711 48.3815 22.301 48.6111 22.3506 48.9122C22.4098 49.2723 22.4913 49.7006 22.5791 50.1307C22.7558 50.9969 22.952 51.8411 23.0365 52.1336L23.0365 52.1336C23.3517 53.2247 23.816 54.5008 24.5287 55.2095L22.2614 48.2402ZM37.1699 35.1608L37.1699 35.1608C37.4461 34.6698 37.7739 34.1932 38.2068 33.8541C38.5781 33.5633 38.9745 33.4739 39.3649 33.5382C39.7246 33.5975 40.0411 33.7816 40.2931 33.9523C41.1452 34.5295 41.818 35.4502 42.2413 36.5978C42.8246 38.1787 42.8758 39.9435 42.701 41.6151C43.2092 40.7476 43.6944 39.8977 43.828 39.6493L45.8011 35.8522C45.838 35.7786 45.8704 35.7165 45.8996 35.6607C45.9393 35.5846 45.973 35.5201 46.0037 35.4536C45.9945 35.3968 45.9843 35.3259 45.9734 35.2495C45.9711 35.2338 45.9688 35.2177 45.9665 35.2016C45.9375 35.0001 45.8985 34.7381 45.839 34.4422C45.7186 33.8436 45.5203 33.1395 45.1782 32.5571M37.1699 35.1608L45.6094 32.3039M37.1699 35.1608C36.8829 35.6713 36.7195 36.0441 36.5825 36.3835C36.5505 36.4628 36.5206 36.5383 36.4914 36.612C36.3953 36.855 36.3069 37.0784 36.1749 37.3525L36.6253 37.5695M37.1699 35.1608L36.6253 37.5695M45.1782 32.5571L45.6094 32.3039M45.1782 32.5571C45.1782 32.5571 45.1783 32.5571 45.1783 32.5571L45.6094 32.3039M45.1782 32.5571C44.7561 31.8382 44.0422 30.9813 43.4101 30.4824M45.6094 32.3039C45.1609 31.5401 44.408 30.6331 43.7198 30.0899M43.4101 30.4824L43.7198 30.0899M43.4101 30.4824C43.4101 30.4824 43.4101 30.4824 43.4101 30.4824L43.7198 30.0899M43.4101 30.4824C43.2981 30.3941 43.1926 30.3088 43.0899 30.2257C42.82 30.0076 42.5694 29.8051 42.2726 29.6039L42.2726 29.6039C41.8516 29.3186 41.4787 29.0686 41.0403 28.7956L41.0402 28.7956C38.7147 27.3473 35.2737 25.8353 32.5791 25.1099C32.579 25.1099 32.579 25.1099 32.579 25.1099L32.5297 25.0966C31.5353 24.8289 30.2104 24.4721 29.2419 24.5234L43.7198 30.0899M41.9707 43.1532L42.327 43.2189C42.3896 43.1164 42.4558 43.0072 42.5245 42.8932L42.047 42.7167C42.0229 42.8633 41.9973 43.0088 41.9707 43.1532ZM41.9707 43.1532C41.9479 43.2767 41.9197 43.4024 41.8914 43.5281C41.8536 43.6958 41.8159 43.8635 41.7913 44.0258C41.8441 43.9894 42.0518 43.6687 42.3269 43.219L41.9707 43.1532ZM36.6253 37.5695L36.1749 37.3525C36.0064 37.7022 35.6415 38.2636 35.2349 38.8542C34.9926 39.2062 34.7632 39.5295 34.5594 39.8167C34.4115 40.0251 34.277 40.2146 34.1609 40.3823C33.8269 40.8644 33.5008 41.3164 33.1722 41.7721C32.932 42.105 32.6904 42.4399 32.4433 42.7899C32.0557 43.339 31.6784 43.8853 31.3024 44.4298C31.1348 44.6724 30.9676 44.9147 30.7997 45.1567C30.7875 45.1678 30.7735 45.1819 30.759 45.1985C30.75 45.2089 30.7427 45.2183 30.7373 45.2254M36.6253 37.5695L30.7373 45.2254M28.69 38.5689L28.6899 38.5689C28.4926 38.8169 28.289 39.0548 28.0934 39.2836C27.9715 39.4261 27.8527 39.565 27.7403 39.7005L28.69 38.5689ZM28.69 38.5689C30.6484 36.1082 32.4472 32.5523 31.0492 28.9665C30.8248 28.391 30.5675 27.96 30.2822 27.5267C30.0792 27.2185 29.8969 27.0212 29.7453 26.8572L29.742 26.8537C29.5933 26.6928 29.4856 26.5748 29.3756 26.393C29.163 26.0419 28.8922 25.4786 28.8368 25.0307M28.69 38.5689L28.8368 25.0307M30.7373 45.2254C30.7371 45.2257 30.7369 45.2259 30.7366 45.2262M30.7373 45.2254L30.7366 45.2262M30.7366 45.2262C30.5929 45.3882 30.3355 45.7695 30.0518 46.2071C29.7572 46.6615 29.406 47.2215 29.0635 47.7755C28.3812 48.8791 27.7211 49.979 27.6061 50.1849L30.7366 45.2262ZM28.8368 25.0307C28.8092 24.8076 28.8455 24.6953 28.8782 24.6475M28.8368 25.0307L28.8782 24.6475M28.8782 24.6475C28.8955 24.6221 28.9613 24.5383 29.2419 24.5234L28.8782 24.6475Z" stroke="white"/>
<path d="M41.6755 16.2585C41.5283 16.0854 41.381 15.9051 41.2649 15.763C41.2134 15.6999 41.1679 15.6443 41.1314 15.6002C40.6772 15.0521 39.973 13.823 39.6896 13.2646L39.6861 13.2576L39.6827 13.2506L38.7746 11.3135L38.7741 11.3124C38.7067 11.1677 38.6486 11.0357 38.5911 10.9052C38.5693 10.8556 38.5475 10.8061 38.5253 10.7562L38.2974 10.3021L37.6581 9.65956C35.9139 8.0556 34.1018 7.04034 31.7433 6.18581L31.7433 6.1858C29.7269 5.45509 27.1813 4.97456 24.9331 4.84484L24.9619 4.34567L24.9331 4.84484C24.6412 4.82799 24.3545 4.81807 24.0606 4.8079C23.9173 4.80294 23.7722 4.79792 23.624 4.79201L41.6755 16.2585ZM41.6755 16.2585C41.6617 16.2521 41.6478 16.2457 41.6338 16.2393C41.5517 16.2014 41.4667 16.1576 41.3697 16.1077C41.3359 16.0903 41.3007 16.0721 41.2636 16.0532C41.1513 15.9959 41.0231 15.9323 40.8949 15.8804C40.7765 15.7989 40.6188 15.7146 40.5002 15.6526C40.4165 15.6088 40.3316 15.5657 40.2573 15.5281C40.1809 15.4895 40.1191 15.4583 40.0745 15.435C39.6772 15.2265 38.8473 14.7551 37.9321 14.2353C37.6643 14.0832 37.3892 13.9269 37.1155 13.7719C36.5149 13.4317 35.924 13.0991 35.4413 12.835C35.0309 12.6103 34.6719 12.4201 34.4549 12.3232C34.3773 12.264 34.3 12.225 34.2562 12.2034C34.2162 12.1837 34.177 12.1661 34.1463 12.1525C34.1121 12.1372 34.0916 12.1282 34.0742 12.1199C33.9898 12.0797 33.9166 12.0426 33.8359 12.0017C33.8065 11.9868 33.7761 11.9714 33.7438 11.9551L33.7437 11.9551C32.1097 11.1337 30.4464 10.4484 28.6207 9.99175L28.4994 10.4768L28.6207 9.99175C26.543 9.47203 25.091 9.46115 23.0371 9.67271C22.7556 9.7017 22.4715 9.74224 22.2005 9.78091C22.1777 9.78417 22.1549 9.78742 22.1323 9.79064C21.8374 9.83264 21.5586 9.87123 21.2915 9.89456C20.9112 9.92416 20.2903 10.0521 19.7075 10.1897C19.1132 10.3301 18.514 10.4914 18.1628 10.6006L18.1627 10.6006C16.3191 11.1738 14.5583 12.0305 13.1655 13.3399C12.6014 13.87 11.9021 14.724 11.478 15.6269L11.478 15.6269C10.6016 17.4932 10.3228 20.1978 11.5306 22.0842C11.8034 22.5102 12.0943 22.8498 12.3976 23.1879L12.4143 23.2065L12.4327 23.2233L13.818 24.4881C13.7777 24.4821 13.7372 24.4761 13.6963 24.4701C13.4467 24.4333 12.8832 24.3675 12.1847 24.2858C11.5634 24.2132 10.8353 24.128 10.1259 24.0398C9.36425 23.945 8.6181 23.8459 8.02689 23.7527C7.73082 23.7061 7.47895 23.6617 7.2858 23.6209C7.1995 23.6028 7.12864 23.586 7.07291 23.5711C7.04538 23.534 7.0187 23.4998 6.99507 23.4697C6.98812 23.4609 6.98138 23.4523 6.97482 23.444C6.92387 23.3792 6.88415 23.3287 6.84798 23.2756C6.1632 22.2701 5.76779 21.0428 5.66095 19.7551L5.66095 19.7551C5.40163 16.6299 6.53828 13.7215 8.15264 11.1574M41.6755 16.2585L20.5016 4.91522C17.8428 5.17205 15.3971 5.74309 13.0212 6.84195C12.4639 7.09973 11.7545 7.49852 11.2574 7.83681L10.7201 8.21264L10.0679 8.77387C10.0272 8.81145 9.97384 8.8541 9.95989 8.86526C9.95802 8.86675 9.95686 8.86768 9.95653 8.86796L9.63599 8.48433L9.95689 8.86766C9.67827 9.10089 9.3307 9.50434 8.98996 9.95218C8.65486 10.3926 8.34839 10.8465 8.15264 11.1574M8.15264 11.1574L7.72952 10.891L8.15264 11.1574ZM22.4151 4.85485L22.2163 4.81903C22.1852 4.81342 22.0955 4.80751 21.9376 4.8102C21.791 4.8127 21.6162 4.82176 21.4343 4.83423C21.103 4.85693 20.7653 4.88967 20.5582 4.90974C20.5381 4.91169 20.5192 4.91352 20.5017 4.91521L22.4151 4.85485ZM22.4151 4.85485L22.5084 4.79241M22.4151 4.85485L22.5084 4.79241M22.5084 4.79241C22.5239 4.79096 22.5426 4.78947 22.5648 4.78805C22.6645 4.78169 22.7976 4.77898 22.942 4.77882C23.2286 4.7785 23.5282 4.7882 23.6239 4.792L22.5084 4.79241Z" stroke="white"/>
<path d="M11.8023 1.11564C11.8165 1.1124 11.8383 1.10744 11.8597 1.10218L15.6712 0.559367C15.7176 0.557062 15.7573 0.55326 15.7943 0.547963C15.8261 0.543424 15.8533 0.538043 15.8675 0.535242L15.8719 0.534381C15.8843 0.531953 15.887 0.531586 15.8903 0.531184C15.8944 0.530692 15.9057 0.529511 15.9297 0.528803L15.9315 0.528742L16.7923 0.500011C17.0494 0.500333 17.3068 0.500222 17.5638 0.500111C17.689 0.500058 17.8141 0.500004 17.939 0.5L20.1726 0.618523L20.1744 0.618611C20.676 0.643432 21.7454 0.769803 22.2621 0.844982L22.2622 0.844986C23.7998 1.0686 24.7438 1.2627 26.2278 1.57491C26.969 1.73087 28.2188 2.08744 28.9616 2.33498C30.0487 2.69724 31.4482 3.23058 32.4087 3.78584L32.6589 3.35298L32.4087 3.78585C32.4543 3.8122 32.4958 3.83284 32.5238 3.84673L32.5312 3.85041C32.5601 3.86484 32.5783 3.87419 32.5987 3.88633C32.663 3.92458 32.7197 3.95728 32.7728 3.98792L32.7843 3.99457C32.8411 4.02736 32.8948 4.05847 32.956 4.09524C33.5464 4.45055 34.2885 4.95356 34.7837 5.39412L35.2444 5.8237L35.2496 5.82857L35.255 5.83328C35.462 6.01557 35.5096 6.06638 35.542 6.1029C35.5506 6.11254 35.5593 6.12269 35.569 6.13388C35.6128 6.18452 35.6749 6.25634 35.8172 6.3974C35.9587 6.53753 36.209 6.83816 36.463 7.16677C36.6169 7.36581 36.761 7.56063 36.8722 7.71878C35.4416 6.66996 33.9064 5.90643 32.083 5.24578C29.963 4.47749 27.3202 3.98112 24.9897 3.84665C24.6877 3.82922 24.3823 3.81864 24.083 3.80826C23.9413 3.80335 23.8009 3.79848 23.6628 3.79295L23.6627 3.79295C23.5593 3.78884 23.2451 3.77863 22.9399 3.77897C22.7883 3.77914 22.6309 3.7819 22.5002 3.79023C22.4358 3.79434 22.3681 3.80038 22.3067 3.81015C22.2927 3.81238 22.2772 3.81507 22.2608 3.81839C22.1517 3.8093 22.0314 3.80859 21.9195 3.8105C21.7487 3.81341 21.555 3.8237 21.3649 3.83672C21.0185 3.86046 20.667 3.89456 20.4608 3.91455C20.4406 3.91651 20.4219 3.91833 20.4046 3.91999L20.4046 3.92C17.6595 4.18515 15.0997 4.77856 12.6004 5.93448L12.6004 5.93449C11.9951 6.21447 11.2361 6.6409 10.691 7.01217L10.691 7.01214L10.6859 7.0157L10.1265 7.40697L10.1059 7.42135L10.0869 7.43771L9.40682 8.02295L9.39608 8.03219L9.38593 8.04198C9.38593 8.04198 9.38592 8.04199 9.38591 8.042C9.38576 8.04214 9.38464 8.04319 9.38215 8.04535L9.36867 8.05662L9.34588 8.07507C9.33705 8.08221 9.32606 8.09113 9.3145 8.10079L9.31415 8.10108C8.94564 8.40956 8.54265 8.88769 8.19327 9.34689C7.83826 9.81349 7.5151 10.292 7.30557 10.6248L7.30556 10.6248C5.62987 13.2862 4.37932 16.4136 4.66353 19.838C4.75995 21.0002 5.06892 22.1395 5.60664 23.152C4.7982 22.8748 3.94901 22.4729 3.35614 22.0538C2.35793 21.348 1.68992 20.5176 1.18962 19.3843C0.636917 18.1323 0.436053 16.4247 0.517369 14.663C0.598397 12.9075 0.956993 11.1546 1.47511 9.83523C1.80349 8.99913 2.0367 8.42546 2.47975 7.68616L2.47976 7.68615C2.72639 7.27459 3.08438 6.69483 3.34491 6.37391C3.39658 6.31028 3.43562 6.26197 3.48569 6.19551L5.0009 4.57023C5.79683 3.83457 6.5833 3.27549 7.55452 2.73302C8.45114 2.2323 9.63077 1.74085 10.6375 1.4327L10.6375 1.43268C10.7227 1.40659 10.9348 1.3425 11.1425 1.28488C11.2468 1.25596 11.3458 1.22981 11.4254 1.21106C11.5 1.19349 11.5297 1.18937 11.5296 1.18865C11.5296 1.18852 11.5286 1.1885 11.5268 1.18853L11.6208 1.18629L11.7124 1.14543L11.7446 1.13108L11.7479 1.13002L11.758 1.12686C11.7603 1.12613 11.7615 1.12577 11.7617 1.12571C11.7704 1.12318 11.7783 1.12117 11.7918 1.11804C11.7945 1.11742 11.7981 1.1166 11.8023 1.11564ZM11.86 1.10211C13.01 0.819911 14.5011 0.617721 15.6711 0.559373L11.86 1.10211Z" stroke="white"/>
<path d="M37.8055 49.2326L37.4323 49.1369C37.4325 49.1367 37.4322 49.1371 37.4314 49.1382C37.4261 49.1457 37.3997 49.1831 37.3368 49.2577C37.2733 49.333 37.1938 49.4216 37.1094 49.514C37.073 49.5538 37.0338 49.5963 36.994 49.6394C36.8682 49.7757 36.7376 49.9172 36.679 49.9931C36.6221 50.0667 36.5842 50.104 36.5069 50.1798C36.4895 50.1969 36.4701 50.2159 36.448 50.2378L36.448 50.2378C36.3752 50.31 36.3214 50.3743 36.2809 50.4228L36.2798 50.4241C36.2392 50.4727 36.2134 50.5034 36.1799 50.5368L35.0437 51.6423L35.0437 51.6422L35.0384 51.6476C34.7412 51.9455 33.8951 52.6566 33.5738 52.8982L33.5736 52.8983C33.5097 52.9464 33.4544 52.9899 33.4036 53.03L33.4017 53.0314C33.351 53.0714 33.3048 53.1078 33.2526 53.1472L33.2524 53.1473C33.2048 53.1833 33.161 53.2143 33.11 53.2505C33.0599 53.2861 33.0034 53.3262 32.9398 53.3743L32.9397 53.3744C32.7919 53.4862 32.6494 53.5793 32.4886 53.6844C32.4246 53.7262 32.3577 53.7699 32.2863 53.8175M37.8055 49.2326L26.8137 54.7225C26.8137 54.7225 26.8137 54.7225 26.8137 54.7225C26.8099 55.1309 26.8674 55.3372 26.9276 55.48C26.9613 55.56 27.0004 55.6312 27.0545 55.7285L27.0579 55.7348C27.0637 55.7451 27.0696 55.7557 27.0756 55.7666M37.8055 49.2326L37.6656 48.9215C37.6323 48.9365 37.6109 48.9518 37.6024 48.9582C37.5931 48.9653 37.5888 48.9695 37.5901 48.9683C37.5935 48.9651 37.6036 48.9543 37.6216 48.9322C37.639 48.911 37.6573 48.887 37.6788 48.8585L37.6854 48.8497C37.7033 48.8259 37.7264 48.7953 37.7474 48.7694L37.748 48.7686L38.5256 47.8122C38.698 47.5961 38.855 47.3914 39.0238 47.1665C39.7632 46.1809 40.2536 45.4809 40.9288 44.4681L40.9289 44.468C40.9479 44.4395 40.9664 44.4117 40.9847 44.3842C41.0405 44.3007 41.0948 44.2191 41.1572 44.126C41.1835 44.0867 41.1918 44.0726 41.2051 44.0499C41.2163 44.0308 41.231 44.0057 41.263 43.9545L41.263 43.9544C41.2799 43.9273 41.2954 43.9048 41.3071 43.8881C41.3306 43.7485 41.3608 43.6102 41.3893 43.4827C41.3942 43.4607 41.3991 43.439 41.4039 43.4177C41.4323 43.2915 41.4581 43.1765 41.479 43.0634L41.479 43.0633C41.8578 41.0114 41.9859 38.7952 41.3031 36.9448L41.3031 36.9447C40.9366 35.9513 40.3776 35.2183 39.7322 34.7811C39.5096 34.6303 39.3409 34.5486 39.2023 34.5258C39.0943 34.508 38.9794 34.5201 38.8235 34.6422L38.8235 34.6422C38.546 34.8595 38.2959 35.1996 38.0415 35.6518C37.7806 36.116 37.6351 36.4483 37.5097 36.7588C37.4825 36.8262 37.4556 36.8943 37.4282 36.9636C37.3298 37.2124 37.225 37.4777 37.0757 37.7874L37.0757 37.7874C36.8684 38.2177 36.4587 38.841 36.0586 39.4221C35.8273 39.7581 35.571 40.1197 35.3534 40.4268C35.2054 40.6356 35.0752 40.8193 34.9829 40.9526L34.9829 40.9526C34.6483 41.4355 34.3079 41.9076 33.9714 42.3743C33.7312 42.7074 33.493 43.0379 33.2603 43.3675L37.8055 49.2326ZM32.2863 53.8175C32.2863 53.8175 32.2863 53.8175 32.2863 53.8175L32.5637 54.2335L32.2863 53.8175ZM32.2863 53.8175C32.0718 53.9605 31.8497 54.0982 31.6311 54.2233L31.631 54.2233C30.3247 54.9708 28.5519 55.6778 27.0756 55.7666M27.0756 55.7666C26.973 55.7728 26.8717 55.776 26.7722 55.776V56.276M27.0756 55.7666C27.1234 55.853 27.1798 55.9575 27.2319 56.0794L26.7722 56.276M26.7722 56.276C28.4308 56.276 30.4521 55.4739 31.8794 54.6573L26.7722 56.276ZM31.4847 45.8907C31.4856 45.8896 31.4866 45.8885 31.4876 45.8875L31.538 45.8476L31.5804 45.7865C31.7663 45.5188 31.9499 45.2529 32.133 44.9877C32.506 44.4476 32.8768 43.9106 33.2603 43.3675L31.4847 45.8907Z" stroke="white"/>
<path d="M48.6376 24.8612L48.6377 24.8613C49.1244 25.3366 49.4769 25.951 49.6618 26.6211C49.6777 26.6789 49.6928 26.7379 49.707 26.7979C49.7468 26.6773 49.7858 26.5599 49.8239 26.445C50.3785 24.7727 50.7457 23.6654 51.0088 21.7441C51.0505 21.4397 51.0748 21.0328 51.0578 20.6273C51.0405 20.2142 50.9818 19.8441 50.8811 19.5907C50.7829 19.3434 50.6569 19.1696 50.4907 19.0457L50.4906 19.0456C50.2134 18.839 50.0821 18.7572 49.7719 18.6454L49.7717 18.6454C49.4912 18.5442 49.1791 18.4691 48.8145 18.4342L48.8145 18.4342C48.1127 18.367 47.7233 18.379 47.2394 18.394C46.9785 18.4021 46.6901 18.4111 46.3104 18.4089C46.2192 18.4084 46.1491 18.4146 46.0548 18.4231L46.0492 18.4236C45.9505 18.4324 45.8318 18.4427 45.6763 18.4404L45.6657 18.4402L45.6552 18.4396L45.0317 18.4042L45.0192 18.4035L45.0067 18.4022C44.5717 18.3555 44.316 18.2936 44.1287 18.2277C44.0596 18.2034 43.9972 18.1772 43.9589 18.1611C43.9494 18.1571 43.9414 18.1538 43.9352 18.1512C43.9009 18.1372 43.8936 18.1359 43.8884 18.1349L43.8883 18.1349L48.6376 24.8612ZM48.6376 24.8612C47.6598 23.9065 46.3631 23.3786 45.0773 23.0049C44.4315 22.8173 43.7727 22.6644 43.1456 22.5188L43.1451 22.5187C42.5124 22.3719 41.9146 22.2331 41.3664 22.0706C41.101 21.9918 40.2964 21.7332 39.5217 21.463C39.1346 21.3279 38.7609 21.192 38.4687 21.0758C38.3601 21.0326 38.2658 20.9934 38.1881 20.9589V20.8821L37.8289 20.7766C37.728 20.747 37.5146 20.6574 37.213 20.515C36.9228 20.378 36.5804 20.2064 36.2371 20.0294C35.5488 19.6744 34.8741 19.3064 34.6324 19.166L34.6324 19.166C34.5596 19.1237 33.8199 18.6808 33.0851 18.2354C32.7187 18.0132 32.3562 17.7921 32.0814 17.6216C31.9436 17.5362 31.83 17.4648 31.7496 17.4128C31.7189 17.393 31.6948 17.3771 31.6769 17.3651L31.6291 17.3093L31.5086 17.2641C31.4612 17.2463 31.3674 17.198 31.2387 17.1234C31.1581 17.0767 31.0828 17.031 31.0116 16.9878C30.9725 16.9641 30.9347 16.9412 30.898 16.9193C30.6989 16.8005 30.4807 16.6908 30.2893 16.5945C30.2589 16.5792 30.2291 16.5642 30.2002 16.5496C27.6599 15.265 24.4844 14.3434 21.7053 16.1556L21.7053 16.1556C21.3337 16.3979 20.8763 16.7357 20.4656 17.119C20.0907 17.4689 19.7179 17.8903 19.5061 18.3396L19.3952 18.4505V18.4805L19.3652 18.5105V18.5401L19.3352 18.5701V18.6613L19.2755 18.7215V18.839L19.2454 18.8988V18.9291L19.2446 18.9308L19.1855 18.9899V19.0798L19.1555 19.1097V19.2292L19.1255 19.2592V19.4666C19.1255 19.5617 19.1243 19.6507 19.1232 19.7361C19.1171 20.1928 19.1125 20.5432 19.2981 21.1427C19.6277 22.2074 20.3225 23.3262 20.8844 24.2309C20.9698 24.3684 21.0522 24.501 21.1297 24.6277C21.2872 24.8851 21.4458 25.1378 21.6032 25.3885C22.3254 26.539 23.0235 27.651 23.4846 29.0145C24.3627 31.611 23.6162 34.4331 22.0724 36.6152L22.0724 36.6152M48.6376 24.8612L22.0724 36.6152M22.0724 36.6152C21.851 36.9282 21.5746 37.2859 21.2911 37.6141L21.2029 36.5913C21.2028 36.5905 21.2027 36.5898 21.2027 36.5891L22.0724 36.6152ZM41.213 17.1469L41.213 17.1469L17.4407 26.057L17.689 25.623C17.689 25.623 17.689 25.623 17.689 25.623C17.4161 25.4669 17.1701 25.3477 16.8573 25.223L16.8458 25.2184L16.834 25.2144L16.0577 24.9488L15.039 24.1925L15.039 24.1925L15.0358 24.1901C14.8714 24.0701 14.7176 23.9456 14.5539 23.8072L13.1236 22.5014C12.8368 22.181 12.5948 21.8941 12.371 21.5446L11.9499 21.8142L12.371 21.5446C11.4157 20.0527 11.5885 17.74 12.3814 16.0517C12.7398 15.2885 13.3534 14.5336 13.8485 14.0682L13.8485 14.0682C15.0954 12.896 16.7037 12.1005 18.4578 11.5552C18.7801 11.4549 19.3556 11.2995 19.9355 11.1625C20.5256 11.0232 21.0769 10.9135 21.369 10.891L21.369 10.8911L21.374 10.8906C21.6727 10.8646 21.9776 10.8221 22.2715 10.7803C22.2932 10.7772 22.3148 10.7741 22.3364 10.771C22.6114 10.7318 22.8766 10.694 23.1377 10.6671L23.1377 10.6671C25.1111 10.4638 26.441 10.4774 28.3762 10.9615L28.3762 10.9615C30.1103 11.3952 31.7029 12.049 33.2924 12.848C33.318 12.8609 33.3438 12.874 33.3701 12.8873C33.455 12.9304 33.5443 12.9757 33.6421 13.0223L33.6422 13.0223C33.67 13.0356 33.7012 13.0494 33.7259 13.0604L33.7378 13.0657C33.7675 13.0789 33.7914 13.0897 33.8125 13.1001C33.8239 13.1057 33.8324 13.1102 33.8386 13.1136L33.8947 13.175L34.0019 13.2174C34.1306 13.2683 34.4695 13.4437 34.9594 13.7118C35.4352 13.9722 36.0207 14.3017 36.6208 14.6416C36.8875 14.7927 37.1577 14.9461 37.4224 15.0965C38.3413 15.6185 39.1947 16.1032 39.6081 16.3201L39.6082 16.3202C39.6552 16.3448 39.7163 16.3757 39.7799 16.4079L39.8041 16.4201C39.8783 16.4576 39.9577 16.4979 40.0348 16.5383C40.1125 16.5789 40.1837 16.6174 40.2416 16.6511C40.2704 16.6679 40.2935 16.682 40.3109 16.6934C40.3273 16.704 40.3336 16.7089 40.333 16.7085L40.3981 16.7622L40.4781 16.7916C40.5674 16.8244 40.6756 16.8765 40.8075 16.9437C40.8352 16.9578 40.8644 16.9729 40.8945 16.9884C40.9964 17.0409 41.1092 17.099 41.213 17.1469ZM42.0347 17.5137C42.5075 17.7143 43.2797 18.0245 43.8882 18.1349L42.0346 17.5136C42.0346 17.5136 42.0347 17.5137 42.0347 17.5137Z" stroke="white"/>
<path fill-rule="evenodd" clip-rule="evenodd" d="M102.947 18.0002C102.947 17.002 103.356 15.8405 103.988 15.1774C104.181 14.9743 104.214 14.907 104.474 14.7055C105.851 13.6371 107.564 13.6055 108.967 14.6752L109.686 15.4245C110.054 15.9151 110.308 16.5003 110.432 17.1037C110.702 18.4129 110.333 19.9677 109.453 20.8528C109.343 20.9642 109.355 20.9945 109.219 21.0979C108.912 21.3332 108.867 21.4518 108.358 21.704C107.117 22.3193 105.604 22.2199 104.527 21.3318C103.958 20.8626 103.551 20.3453 103.272 19.6521C103.098 19.2213 102.947 18.6097 102.947 18.0002L102.947 18.0002ZM110.315 11.591C109.974 11.3627 109.943 11.3132 109.523 11.0645C108.737 10.5981 107.441 10.1835 106.451 10.1835H105.882C104.377 10.1835 102.597 10.983 101.576 11.9276C101.487 12.0105 101.428 12.0894 101.334 12.1645C101.199 12.2721 101.202 12.269 101.095 12.4041C101.019 12.4987 100.939 12.5529 100.859 12.6481C98.4713 15.5002 98.1849 19.3519 100.092 22.5623C100.405 23.0891 100.59 23.2505 100.915 23.6562C101.4 24.2628 102.365 24.9848 103.046 25.3283C104.793 26.2078 106.646 26.3397 108.509 25.5991C109.279 25.2934 109.69 24.9974 110.345 24.5591C110.345 25.9067 110.325 26.6904 109.319 27.6963C109.127 27.8879 108.984 27.997 108.766 28.1619C108.663 28.2396 108.562 28.3009 108.456 28.3615C108.352 28.4212 108.216 28.5005 108.103 28.5472C107.314 28.8728 107.07 28.9618 106.122 28.9618C104.773 28.9618 103.478 28.1365 102.767 27.075C101.638 27.8314 100.513 28.5947 99.3831 29.3511C99.4159 29.4742 99.8624 29.9979 99.9477 30.1043C100.274 30.5116 100.888 31.0567 101.313 31.3749C104.318 33.6277 108.34 33.5595 111.324 31.3193L111.675 31.0411C111.804 30.9405 111.869 30.8644 111.996 30.7633C112.176 30.6202 112.581 30.1603 112.747 29.957C113.56 28.9625 114.217 27.7283 114.48 26.4189C114.618 25.7366 114.687 24.9965 114.687 24.1699C114.687 23.3395 114.717 22.567 114.717 21.714V10.1235H110.315V11.5911L110.315 11.591Z" fill="white"/>
<path fill-rule="evenodd" clip-rule="evenodd" d="M70.6026 9.37356C70.6422 9.4191 70.6335 9.40692 70.6592 9.46672L70.9208 10.2534C71.025 10.5662 71.1112 10.8409 71.22 11.1522C71.4325 11.76 71.6303 12.3513 71.8344 12.9637L73.0585 16.5614H68.1767L70.6026 9.37356ZM60.1203 25.696H65.0918C65.1441 25.4719 65.2348 25.2848 65.3055 25.0711C65.3733 24.8664 65.4436 24.656 65.515 24.4419L66.799 20.6346H74.4361C74.4824 20.8333 74.5786 21.0775 74.6419 21.2674L76.1432 25.6961H81.0549C81.0461 25.5911 80.9911 25.4488 80.9524 25.3493C80.9038 25.2241 80.8731 25.1225 80.8241 24.9984L79.3135 20.8485C79.2299 20.6248 79.1507 20.3832 79.057 20.1466C78.8735 19.6825 78.7326 19.2331 78.5518 18.7651L78.0484 17.3817C77.883 16.9047 77.703 16.4661 77.5471 15.9961C77.2886 15.2174 76.8221 13.9971 76.5368 13.2328L75.286 9.78142C74.7396 8.2054 74.0436 6.48717 73.5186 4.93C73.4574 4.74853 73.0397 3.66925 73.0283 3.53345H68.2064C68.1771 3.65933 68.1283 3.7521 68.0903 3.86655L67.1992 6.2998C67.0377 6.77895 66.8595 7.20621 66.6979 7.68536C66.4063 8.55019 65.9747 9.58142 65.687 10.4481C65.6146 10.6663 65.5267 10.8976 65.4383 11.1278C65.0529 12.1321 64.6742 13.2902 64.2918 14.2641C63.8633 15.3552 63.4641 16.6127 63.0339 17.7083L62.6485 18.7604C62.3054 19.6477 61.9877 20.642 61.6387 21.5243C61.5462 21.7583 61.4818 21.9687 61.3906 22.2046C61.1299 22.879 60.8966 23.6139 60.6292 24.2885L60.1201 25.6962L60.1203 25.696Z" fill="white"/>
<path fill-rule="evenodd" clip-rule="evenodd" d="M122.775 22.8816C120.805 22.8816 121.055 20.9524 121.915 20.2249C122.968 19.3333 125.004 19.3928 126.283 18.9322C126.406 18.8876 126.556 18.8047 126.668 18.7786C126.668 19.4932 126.626 19.9877 126.407 20.4945C126.306 20.7285 126.178 20.9298 126.039 21.1146C125.864 21.3478 125.661 21.5878 125.436 21.7693C125.383 21.812 125.367 21.834 125.308 21.8807C124.62 22.4249 123.678 22.8816 122.775 22.8816H122.775ZM118.013 14.6755L121.547 15.5739C121.577 15.2094 122.176 14.417 122.565 14.1361C123.504 13.458 125.011 13.2926 125.911 13.9647C126.204 14.1834 126.638 14.6699 126.638 15.1546C126.638 15.9607 126.1 16.0972 125.41 16.2632C123.246 16.7845 120.796 16.9058 118.839 18.2571C118.274 18.6476 117.676 19.3107 117.405 19.9378C116.751 21.4524 116.973 23.61 118.079 24.7315C118.375 25.0315 118.709 25.2639 119.086 25.4616C119.371 25.6109 119.782 25.7417 120.103 25.8227C121.712 26.2289 123.63 25.8832 125.076 25.3032C125.595 25.0952 125.944 24.9108 126.41 24.6007C126.492 24.5468 126.587 24.4604 126.668 24.4389V25.7268H130.861L130.861 18.1495C130.862 17.8953 130.829 17.7687 130.831 17.5208C130.838 16.1431 130.95 15.0211 130.483 13.6156C130.242 12.8902 129.882 12.1811 129.401 11.7029C129.196 11.499 129.064 11.3437 128.818 11.1771C128.73 11.1172 128.679 11.0712 128.591 11.0154C127.084 10.0661 124.8 9.92516 123.074 10.2127C121.62 10.4549 120.54 11.0657 119.517 12.0771L119.197 12.4461C119.006 12.692 118.798 12.9685 118.643 13.2391C118.466 13.5458 118.038 14.3691 118.012 14.6754L118.013 14.6755Z" fill="white"/>
<path fill-rule="evenodd" clip-rule="evenodd" d="M146.285 22.8807C145.881 22.8807 145.485 22.7764 145.244 22.6035C144.993 22.4233 144.787 22.129 144.787 21.7128C144.787 20.3565 145.743 19.8756 146.817 19.58C147.716 19.3328 148.96 19.2303 149.793 18.9312C149.917 18.8867 150.066 18.8039 150.178 18.7776C150.178 19.5682 150.274 19.8135 149.929 20.5049C149.695 20.9722 149.426 21.3106 149.078 21.6608C148.748 21.9926 148.297 22.2626 147.882 22.4715C147.447 22.6904 146.8 22.8807 146.285 22.8807ZM141.523 14.6747C141.822 14.7444 142.101 14.8272 142.403 14.9024C142.713 14.9793 142.992 15.0494 143.29 15.1239C143.874 15.27 144.464 15.4352 145.057 15.5731C145.123 15.2875 145.332 14.9821 145.476 14.7643C145.559 14.6389 145.646 14.5496 145.741 14.4301C145.927 14.1958 146.556 13.8204 146.88 13.7122C147.019 13.6658 147.219 13.6202 147.388 13.5914C148.125 13.4661 148.836 13.5544 149.442 13.973C150.075 14.4098 150.439 15.4198 149.871 15.8945C149.709 16.0295 149.403 16.1365 149.184 16.196C148.669 16.3359 148.101 16.4435 147.547 16.5354C146.509 16.7075 145.316 16.9695 144.327 17.2988C143.064 17.719 141.805 18.4204 141.139 19.5317C141.08 19.6304 140.998 19.7639 140.957 19.8595C140.422 21.1141 140.418 22.4921 140.936 23.7368C141.033 23.9698 141.181 24.2105 141.321 24.3999C143.085 26.7787 147.344 26.1543 149.667 24.7658C149.761 24.7101 149.826 24.6703 149.921 24.6007C150.002 24.5423 150.09 24.4614 150.178 24.438V25.7259H154.371L154.372 17.908C154.372 17.7095 154.34 17.5973 154.341 17.37C154.342 16.9914 154.371 16.6686 154.371 16.2619C154.371 15.3124 154.243 14.3586 154 13.6375C153.872 13.2551 153.635 12.6731 153.425 12.3559C153.031 11.7597 152.701 11.4172 152.101 11.0146C151.814 10.8217 151.456 10.645 151.096 10.5224C149.877 10.1083 149.089 10.0923 147.812 10.0923C146.323 10.0923 144.832 10.6031 143.739 11.4397L143.027 12.0761C142.607 12.5311 142.185 13.1394 141.912 13.6862C141.824 13.8637 141.54 14.4698 141.523 14.6746V14.6747Z" fill="white"/>
<path fill-rule="evenodd" clip-rule="evenodd" d="M87.0754 11.711V10.1237H82.6729V25.6975H87.0754V16.6527C87.0754 16.303 87.2123 15.8962 87.3347 15.6541C87.4722 15.3822 87.6248 15.1157 87.8312 14.8928C88.1732 14.5234 88.8339 14.0771 89.5313 14.0771C90.3924 14.0771 90.8983 14.2651 91.4708 14.833C91.8975 15.2562 92.1968 15.868 92.1968 16.503V25.8173H96.3897V16.5628C96.3897 14.1321 95.156 11.8544 93.2995 10.7281C91.8243 9.83307 90.0908 9.81297 88.5526 10.5825C87.7319 10.9932 87.2841 11.5713 87.0755 11.711L87.0754 11.711Z" fill="white"/>
<path fill-rule="evenodd" clip-rule="evenodd" d="M141.135 51.9931H145.028V44.955C145.028 43.9424 145.071 43.306 145.448 42.6497C145.735 42.1515 146.428 41.6606 147.215 41.6606C147.727 41.6606 148.138 41.6414 148.602 41.8901C149.374 42.3042 149.76 43.1631 149.76 44.1165V51.9931H153.684V43.3976C153.684 42.1574 153.539 41.1982 152.995 40.193C152.713 39.6721 152.453 39.4029 152.03 39.0317C151.925 38.9395 151.81 38.8518 151.687 38.7755C150.659 38.1402 149.899 38.0966 148.682 38.0966C148.288 38.0966 147.768 38.2233 147.484 38.3362C147.041 38.5125 146.923 38.5498 146.507 38.827C145.948 39.2001 145.766 39.4413 145.38 39.8561L145.028 40.253V33.3945H141.135V51.9932V51.9931Z" fill="white"/>
<path fill-rule="evenodd" clip-rule="evenodd" d="M60.6006 51.9925H64.5539V45.1041H73.0596V41.5701H64.5539V37.7066H74.1977V34.1726H60.6006V51.9925Z" fill="white"/>
<path fill-rule="evenodd" clip-rule="evenodd" d="M116.847 41.2413C117.501 41.2413 117.815 41.2142 118.425 41.5204C118.722 41.6696 118.984 41.8975 119.179 42.1436L119.452 42.5291C119.68 42.8715 119.961 43.644 119.961 44.0866H114.181C114.194 43.5132 114.64 42.6196 115.01 42.1603C115.428 41.6434 116.135 41.2413 116.847 41.2413ZM110.348 45.1947C110.348 47.1158 110.989 48.9365 112.257 50.2037C113.003 50.9491 113.618 51.3784 114.588 51.7664C115.836 52.2654 116.575 52.2926 117.925 52.2926C118.701 52.2926 119.645 52.0816 120.321 51.8139C120.554 51.7218 120.745 51.6157 120.97 51.5041C121.202 51.3889 121.359 51.281 121.567 51.1426C121.781 51.0002 121.922 50.883 122.114 50.7314C122.373 50.5274 122.897 50.014 123.076 49.747L120.86 47.7703C120.78 47.824 120.65 47.9444 120.567 48.0165C120.471 48.1003 120.368 48.1793 120.266 48.2542C119.59 48.7507 118.759 49.148 117.835 49.148C117.134 49.148 116.753 49.1769 116.08 48.896C115.453 48.6337 114.917 48.1972 114.61 47.5811C114.483 47.3259 114.268 46.8692 114.241 46.5425H123.196C123.838 46.5425 123.765 46.8131 123.765 45.1947C123.765 44.1681 123.527 43.1554 123.267 42.368C122.905 41.2711 122.133 40.1108 121.22 39.4139C121.057 39.2895 120.91 39.1882 120.728 39.0671C119.877 38.4989 118.669 38.0967 117.506 38.0967C116.634 38.0967 116.142 38.0712 115.272 38.3187C114.753 38.4663 114.536 38.563 114.071 38.7955C113.268 39.1974 112.525 39.7937 111.969 40.4965C110.924 41.8167 110.348 43.3989 110.348 45.1947L110.348 45.1947Z" fill="white"/>
<path fill-rule="evenodd" clip-rule="evenodd" d="M88.4531 40.2524V38.3356H84.5596V51.9926H88.4531V44.9545C88.4531 43.9418 88.4958 43.3055 88.8732 42.6492C89.1596 42.1509 89.8524 41.66 90.6394 41.66C91.1515 41.66 91.563 41.6408 92.027 41.8896C92.7993 42.3036 93.1851 43.1625 93.1851 44.1159V51.9926H97.1084V43.397C97.1084 42.4452 97.0087 41.5938 96.7066 40.8039L96.051 39.6325C95.9519 39.5159 95.8757 39.4233 95.7681 39.3164C95.7112 39.2598 95.6768 39.2218 95.6189 39.1661L95.1116 38.7749C94.9892 38.6993 94.8617 38.6144 94.7329 38.5547C93.7599 38.1041 93.1688 38.0959 92.1068 38.0959C91.7131 38.0959 91.1927 38.2226 90.9087 38.3355C89.1376 39.0399 88.8049 40.0166 88.4529 40.2523L88.4531 40.2524Z" fill="white"/>
<path fill-rule="evenodd" clip-rule="evenodd" d="M133.826 25.6971C133.826 25.7661 133.847 25.7869 133.916 25.7869H137.809C137.878 25.7869 137.899 25.7661 137.899 25.6971V1.97709C137.899 1.90806 137.878 1.88721 137.809 1.88721H133.826V25.6971H133.826Z" fill="white"/>
<path fill-rule="evenodd" clip-rule="evenodd" d="M125.948 45.2239C125.948 46.3612 126.195 47.2681 126.535 48.0821C127.155 49.5684 128.22 50.6708 129.612 51.4439L130.192 51.7318C131.432 52.2674 132.23 52.292 133.556 52.292C135.152 52.292 136.466 51.7144 137.668 50.7441C137.902 50.5551 138.499 50.0267 138.647 49.8063L136.401 47.5002L135.959 47.8672C135.375 48.389 134.4 48.9377 133.526 48.9377C132.698 48.9377 132.424 48.9538 131.669 48.5783C130.94 48.2158 130.407 47.5924 130.107 46.8459C129.709 45.8577 129.7 44.5603 130.098 43.5636C130.261 43.1558 130.593 42.6313 130.883 42.3418C131.333 41.8919 132.157 41.4504 132.837 41.4504C133.765 41.4504 134.243 41.4509 135.047 41.9653C135.316 42.1372 135.713 42.4548 135.944 42.6858C136.034 42.7757 136.099 42.9053 136.251 42.9179C136.288 42.779 136.432 42.6928 136.528 42.5964L137.98 41.0232C138.168 40.836 138.438 40.5021 138.587 40.4021C138.479 40.241 138.305 40.0597 138.15 39.9402C138.052 39.8646 138.01 39.7982 137.919 39.722C137.827 39.6439 137.745 39.587 137.652 39.5105C136.553 38.6078 135.037 38.0959 133.585 38.0959C132.396 38.0959 131.7 38.1003 130.557 38.5114L129.668 38.9103C129.202 39.1942 129.099 39.2225 128.613 39.5929C128.56 39.6335 128.552 39.6451 128.501 39.6899C128.442 39.7411 128.425 39.7446 128.367 39.7958C128.288 39.8657 128.238 39.9359 128.156 40.0038C127.863 40.2465 127.352 40.8723 127.152 41.1864C126.411 42.3466 125.948 43.6712 125.948 45.2239L125.948 45.2239Z" fill="white"/>
<path fill-rule="evenodd" clip-rule="evenodd" d="M101.092 38.3354H99.4443V41.6598H101.092V48.4882C101.092 49.0097 101.202 49.6732 101.352 50.0549C101.479 50.379 101.613 50.672 101.81 50.9444C102.14 51.3998 102.568 51.7242 103.115 51.9456C104.108 52.3479 105.907 52.3219 106.92 51.981C107.494 51.7882 107.62 51.7231 108.13 51.4532V48.3384C108.033 48.3609 107.861 48.4469 107.77 48.4874C107.098 48.7843 106.716 48.7876 106.003 48.7876C105.682 48.7876 105.423 48.6254 105.261 48.4513C105.104 48.2823 104.985 47.9669 104.985 47.6495V41.6597H108.19V38.3352H104.985V34.8611H101.092L101.092 38.3354Z" fill="white"/>
<path fill-rule="evenodd" clip-rule="evenodd" d="M77.04 51.992H80.9335V38.335H77.04V51.992Z" fill="white"/>
<path fill-rule="evenodd" clip-rule="evenodd" d="M76.9512 36.8388H81.0543V33.3945H76.9512V36.8388Z" fill="white"/>
</svg>
