<svg width="165" height="60" viewBox="0 0 165 60" fill="none" xmlns="http://www.w3.org/2000/svg">
<path fill-rule="evenodd" clip-rule="evenodd" d="M21.2436 19.8602C21.2481 19.9041 21.2573 19.8921 21.2117 19.8921V19.9241C21.2162 19.968 21.2253 19.9561 21.1797 19.9561V19.988C21.1842 20.0319 21.1934 20.02 21.1477 20.02V20.052C21.1544 20.1585 21.159 20.092 21.1158 20.1158V20.1478C21.1203 20.1916 21.1295 20.1798 21.084 20.1798V20.2117C21.0905 20.3182 21.0952 20.2517 21.052 20.2755V20.3075C21.0585 20.414 21.0632 20.3476 21.0201 20.3714V20.4352C21.0243 20.479 21.0337 20.4672 20.9881 20.4672V20.563C20.9924 20.6068 21.0017 20.595 20.9562 20.595V20.7227C20.9604 20.7665 20.9697 20.7546 20.9242 20.7546C20.9242 21.4294 20.8788 21.7199 21.0843 22.3838C21.4639 23.6099 22.334 24.9189 22.9825 25.9787C23.8981 27.4753 24.9198 28.9193 25.5434 30.763C26.5485 33.735 25.6833 36.9203 23.968 39.3447C23.5167 39.9828 22.8376 40.8186 22.2683 41.3014C22.2683 41.8019 22.4098 43.2124 22.4581 43.8415L22.556 45.1164C22.5671 45.5495 22.6305 45.9569 22.6521 46.3933L22.9566 49.5051C23.0014 49.8228 23.1453 51.2452 23.1943 51.3377L23.8097 49.784C24.2563 48.7635 24.8016 47.886 25.3682 46.9708C26.3303 45.4162 27.5062 44.0047 28.6461 42.586C28.8194 42.3704 28.9835 42.2005 29.1619 41.9853C29.4966 41.5816 29.826 41.2164 30.1676 40.7871C32.2271 38.1996 33.9849 34.6192 32.6032 31.0755C32.3831 30.5109 32.131 30.0865 31.837 29.64C31.4521 29.0555 31.1555 28.903 30.8596 28.4142C30.3841 27.6285 29.5138 25.6992 31.1449 25.6127C32.2987 25.5516 33.8355 25.9772 34.8695 26.2555C37.794 27.0429 41.5106 28.6761 44.0332 30.2472C44.5098 30.5439 44.9144 30.8153 45.3643 31.1202C45.8225 31.4306 46.1985 31.7562 46.6082 32.0795C47.3418 32.6585 48.1445 33.6256 48.6227 34.4398C49.4399 35.8317 49.5259 37.711 49.6 37.8474L50.0045 37.028C50.0816 36.875 50.134 36.7352 50.2065 36.5914C50.282 36.442 50.3409 36.3294 50.4117 36.158C50.5593 35.8004 50.8567 35.2475 51.0094 34.8719C51.0618 34.7429 51.1375 34.5686 51.2069 34.4309C51.3893 34.0692 52.6736 31.0747 52.6856 30.8763C52.6855 30.1206 52.6245 29.2212 52.432 28.5237C52.2584 27.8947 51.929 27.3241 51.4816 26.8872C49.5865 25.0368 46.3615 24.7566 43.9506 24.0417C43.3636 23.8676 40.4857 22.9272 40.1806 22.663C39.5674 22.483 37.1924 21.2076 36.6551 20.8954C36.4898 20.7993 33.4821 18.9954 33.4055 18.906C33.2109 18.8331 32.8647 18.6141 32.6685 18.497C32.4429 18.3624 32.1918 18.2395 31.9573 18.1209C29.2797 16.7669 26.1385 15.9071 23.4324 17.6716C22.6787 18.1631 21.585 19.0378 21.2434 19.8605L21.2436 19.8602Z" fill="#89163B"/>
<path fill-rule="evenodd" clip-rule="evenodd" d="M23.1935 51.3375C23.1935 52.055 23.8514 55.06 24.0444 55.728C24.378 56.8828 24.902 58.3727 25.7716 59.2373C26.0273 59.4916 26.4604 59.8319 26.8422 59.9228C27.2815 60.0274 28.002 59.9954 28.5392 59.9954C28.3322 59.5114 28.0412 59.3223 28.0504 58.3342C28.0632 56.9638 29.2456 54.9224 29.8936 53.7626C30.1253 53.3479 32.6831 49.1124 33.1645 48.5698C33.2146 48.5133 33.1688 48.5548 33.2274 48.5085C33.826 47.6462 34.4099 46.7914 35.0207 45.9261C35.6305 45.0625 36.2407 44.2415 36.8545 43.3555C37.3921 42.5794 38.643 40.8848 39.0437 40.0532C39.4306 39.2503 39.5047 38.7856 40.0889 37.7466C40.3717 37.2438 40.6798 36.8084 41.0585 36.5118C41.6205 36.0716 42.149 36.2955 42.655 36.6382C43.4532 37.1789 44.1098 38.0604 44.5308 39.2017C45.3093 41.3115 45.1515 43.7904 44.7425 46.006C44.6858 46.3133 44.5971 46.6335 44.5512 46.9363C44.7442 46.8033 46.8763 43.111 47.1938 42.5196L49.301 38.4645C49.4086 38.2492 49.5153 38.0684 49.599 37.847C49.525 37.7107 49.439 35.8313 48.6217 34.4395C48.1436 33.6252 47.3409 32.6582 46.6072 32.0792C46.1975 31.7559 45.8215 31.4303 45.3634 31.1198C44.9134 30.8148 44.5089 30.5436 44.0323 30.2468C41.5097 28.6758 37.7931 27.0425 34.8685 26.2552C33.8345 25.9769 32.2977 25.5512 31.1439 25.6124C29.5128 25.6988 30.3831 27.6282 30.8587 28.4139C31.1545 28.9027 31.4511 29.0551 31.836 29.6397C32.1301 30.0862 32.3822 30.5105 32.6023 31.0751C33.9839 34.6188 32.2261 38.1991 30.1667 40.7867C29.825 41.2161 29.4956 41.5812 29.1609 41.9849C28.9825 42.2002 28.8184 42.3701 28.6452 42.5857C27.5053 44.0043 26.3294 45.4158 25.3672 46.9704C24.8007 47.8857 24.2553 48.7632 23.8087 49.7837L23.1934 51.3374L23.1935 51.3375Z" fill="#EE6B23"/>
<path fill-rule="evenodd" clip-rule="evenodd" d="M11.1005 8.33355L10.3755 8.95748C10.3436 8.98822 10.3065 9.01587 10.2711 9.04547C9.58123 9.623 8.67074 10.9252 8.23867 11.6113C6.48494 14.3967 5.21244 17.6142 5.50214 21.1054C5.62248 22.5559 6.06901 23.9558 6.85835 25.1148C6.97079 25.2798 7.1076 25.4255 7.19774 25.5757C7.83828 25.8893 13.5287 26.4691 14.5222 26.6155C15.2668 26.7252 15.8857 26.8227 16.5907 27.0057C16.7026 27.0347 16.7589 27.0668 16.8682 27.0763L15.7155 26.2205C15.5235 26.0803 15.3466 25.9365 15.1642 25.7823L13.6122 24.3652C13.2937 24.0102 13.007 23.674 12.74 23.257C11.587 21.4562 11.8277 18.7817 12.7175 16.8869C13.1346 15.9988 13.8344 15.1411 14.399 14.6105C15.8061 13.2877 17.6021 12.407 19.5199 11.8107C20.238 11.5875 22.0244 11.1353 22.7409 11.0803C23.3449 11.0277 23.9872 10.9072 24.6128 10.8427C26.7595 10.6216 28.2424 10.6347 30.3816 11.1697C32.2791 11.6444 34.0148 12.3582 35.7332 13.222C35.855 13.2833 35.9661 13.3409 36.0956 13.4027C36.2021 13.4534 36.3732 13.5167 36.4459 13.5962C37.1464 13.8734 41.3591 16.3426 42.4743 16.9277C42.6821 17.0367 43.1903 17.2801 43.3381 17.4021C43.594 17.4962 43.8996 17.6765 44.1609 17.7971C44.4525 17.9317 44.7193 18.0531 45.0217 18.1814C45.5304 18.3973 46.3025 18.7044 46.8849 18.81C46.8603 18.774 45.8837 18.0451 45.7109 17.8733C45.6132 17.776 45.5827 17.7476 45.4753 17.6619C45.1486 17.4013 44.535 16.6248 44.2591 16.2918C43.8148 15.7556 43.0859 14.4898 42.7869 13.9006L41.8187 11.8355C41.72 11.6236 41.6436 11.4448 41.5523 11.2397L41.2654 10.6681L40.5153 9.91417C38.5914 8.14276 36.5925 7.02542 34.0216 6.09391C31.8166 5.29486 29.0509 4.77412 26.6102 4.63329C26.1414 4.60624 25.6751 4.59525 25.205 4.5765C24.9928 4.56806 23.8961 4.53404 23.7776 4.61333C23.4196 4.54884 22.2212 4.66965 21.8039 4.7099C18.9233 4.98815 16.2552 5.60886 13.6564 6.81079C13.0361 7.09767 12.2527 7.53805 11.697 7.91648L11.1006 8.33362L11.1005 8.33355Z" fill="url(#paint0_linear_1165_1559)"/>
<path fill-rule="evenodd" clip-rule="evenodd" d="M7.19865 25.5755C7.10852 25.4254 6.9717 25.2797 6.85927 25.1147C6.06993 23.9557 5.62339 22.5559 5.50305 21.1053C5.21328 17.614 6.48579 14.3966 8.23959 11.6112C8.67166 10.9251 9.58214 9.62288 10.272 9.04536C10.3075 9.01576 10.3445 8.9881 10.3764 8.95736L11.1014 8.33343L11.6978 7.9163C12.2535 7.53787 13.0369 7.09749 13.6571 6.81061C16.2559 5.60868 18.9241 4.98797 21.8047 4.70972C22.222 4.66947 23.4203 4.54866 23.7784 4.61315C23.8969 4.53386 24.9936 4.56788 25.2058 4.57632C25.676 4.59514 26.1423 4.60605 26.611 4.63311C29.0517 4.77394 31.8174 5.29468 34.0223 6.09372C36.5933 7.02524 38.5922 8.14258 40.5161 9.91399L41.2662 10.6679C41.2287 10.4987 40.9564 10.0128 40.8617 9.82358C40.5511 9.20226 40.2966 8.79906 39.9436 8.21932C39.7027 7.82355 38.9165 6.7948 38.5602 6.44168C38.2204 6.10504 38.3878 6.215 37.9378 5.81883L37.4421 5.35662C36.8786 4.8543 36.0529 4.29647 35.4093 3.90913C35.2701 3.82542 35.1659 3.7683 35.0265 3.68526C34.9469 3.63791 34.89 3.61628 34.8179 3.57463C33.7452 2.95445 32.2106 2.37217 31.0447 1.98363C30.2399 1.71543 28.8871 1.32903 28.0714 1.15739C26.4865 0.823961 25.4669 0.614221 23.8105 0.373341C23.2545 0.292445 22.0947 0.154828 21.5344 0.127103L19.1391 0C18.724 0 18.3089 0.000535736 17.8938 0L16.9669 0.0309387C16.8138 0.0354925 16.8209 0.0569889 16.6806 0.0639534C15.4034 0.127639 13.7796 0.347425 12.5167 0.657348C12.4663 0.669736 12.4349 0.675228 12.3885 0.688822C12.3783 0.691836 12.3487 0.701144 12.3392 0.704492C12.3317 0.707171 12.3222 0.711189 12.3155 0.713801L12.2695 0.73436C12.1095 0.738177 11.3701 0.960909 11.1847 1.0177C10.079 1.35615 8.78604 1.89429 7.79399 2.44831C6.71924 3.0486 5.84217 3.6724 4.95499 4.49449L3.30667 6.26255C3.25115 6.33708 3.21238 6.38516 3.15218 6.4593C2.84627 6.83612 2.44541 7.48811 2.18644 7.92025C1.68988 8.74883 1.42798 9.39553 1.07647 10.2905C-0.0774403 13.2289 -0.490693 18.0012 0.780607 20.881C1.3515 22.1742 2.12443 23.1368 3.2703 23.947C4.16458 24.5791 5.52977 25.1583 6.63573 25.4348C6.81708 25.4801 7.01979 25.5608 7.19872 25.5755L7.19865 25.5755Z" fill="url(#paint1_radial_1165_1559)"/>
<path fill-rule="evenodd" clip-rule="evenodd" d="M40.372 52.6409C40.461 52.6008 40.5829 52.4169 40.6548 52.3279L41.4853 51.3065C41.674 51.0701 41.8451 50.8469 42.0277 50.6036C42.8227 49.5439 43.3512 48.7894 44.0758 47.7026C44.1578 47.5796 44.2306 47.4703 44.3187 47.3388C44.3727 47.258 44.3892 47.2242 44.4408 47.1415C44.4932 47.0576 44.5311 47.0295 44.5518 46.9363C44.5977 46.6335 44.6864 46.3132 44.743 46.006C45.1521 43.7903 45.3099 41.3114 44.5314 39.2017C44.1104 38.0604 43.4538 37.1789 42.6556 36.6382C42.1496 36.2954 41.621 36.0715 41.0591 36.5118C40.6804 36.8084 40.3723 37.2437 40.0895 37.7465C39.5053 38.7855 39.4312 39.2502 39.0443 40.0531C38.6436 40.8847 37.3927 42.5793 36.8551 43.3554C36.2413 44.2415 35.6311 45.0624 35.0213 45.9261C34.4104 46.7914 33.8267 47.6461 33.228 48.5085C33.1694 48.5547 33.2152 48.5133 33.1651 48.5698C32.6837 49.1124 30.1259 53.3479 29.8942 53.7626C29.2462 54.9223 28.0638 56.9638 28.051 58.3342C28.0418 59.3222 28.3328 59.5114 28.5398 59.9954C30.3081 59.9954 32.463 59.1403 33.9846 58.2696C34.2288 58.1299 34.4759 57.9767 34.7142 57.8178C34.961 57.6532 35.1995 57.5064 35.4366 57.327C35.5577 57.2355 35.6537 57.1728 35.7697 57.0853C35.8925 56.9926 35.9856 56.915 36.1114 56.8203C36.4668 56.5531 37.3897 55.7784 37.7299 55.4374L38.9436 54.2565C39.0561 54.1446 39.1127 54.0534 39.2305 53.9367C39.3448 53.8234 39.4219 53.7544 39.5234 53.623C39.6517 53.4567 40.2602 52.8444 40.372 52.6408V52.6409Z" fill="url(#paint2_radial_1165_1559)"/>
<path fill-rule="evenodd" clip-rule="evenodd" d="M40.1801 22.6624C40.4852 22.9266 43.363 23.8669 43.95 24.041C46.361 24.7559 49.586 25.0362 51.4811 26.8865C51.9285 27.3234 52.2579 27.894 52.4315 28.5231C52.6239 29.2205 52.6849 30.12 52.6851 30.8756L53.4669 28.8361C54.1455 26.7801 54.5972 25.5347 54.9095 23.2542C55.0067 22.5439 55.0198 21.3923 54.7407 20.6894C54.6086 20.3567 54.4215 20.0819 54.1475 19.8777C53.8239 19.6365 53.6376 19.519 53.2434 19.3769C52.903 19.2542 52.5266 19.1641 52.0928 19.1226C50.9143 19.0097 50.4589 19.0994 49.3755 19.0932C49.1195 19.0917 48.9777 19.1308 48.7041 19.1268L48.0394 19.089C47.1677 18.9955 47.1194 18.8522 46.8853 18.8096C46.303 18.704 45.5309 18.397 45.0222 18.1811C44.7197 18.0528 44.453 17.9313 44.1613 17.7968C43.9 17.6762 43.5944 17.4958 43.3385 17.4017C43.1906 17.2796 42.6825 17.0363 42.4747 16.9273C41.3595 16.3422 37.1468 13.873 36.4463 13.5959C36.3736 13.5164 36.2026 13.4531 36.096 13.4023C35.9665 13.3406 35.8554 13.283 35.7336 13.2217C34.0152 12.3578 32.2796 11.644 30.382 11.1694C28.2429 10.6343 26.7599 10.6213 24.6132 10.8424C23.9876 10.9068 23.3453 11.0273 22.7413 11.0799C22.0248 11.135 20.2384 11.5871 19.5203 11.8104C17.6025 12.4067 15.8066 13.2873 14.3995 14.6101C13.8349 15.1408 13.1351 15.9984 12.7179 16.8866C11.8281 18.7814 11.5874 21.4558 12.7404 23.2567C13.0074 23.6737 13.2942 24.0099 13.6126 24.3649L15.1646 25.7819C15.347 25.9362 15.5239 26.0799 15.716 26.2201L16.8687 27.0759L17.7749 27.386C18.0855 27.5098 18.3253 27.626 18.5942 27.7799C19.1033 28.0712 19.2185 28.1975 19.6099 28.5843C19.8647 28.8362 20.1971 29.3809 20.3335 29.7125C20.3947 29.8611 20.4578 29.982 20.5209 30.1318C20.5867 30.288 20.6363 30.4342 20.6912 30.6001C21.2696 32.3498 21.6954 35.0073 21.8517 36.8153C21.9156 37.5552 22.0163 38.3142 22.0736 39.0518L22.2676 41.3006C22.837 40.8178 23.5159 39.982 23.9673 39.3439C25.6825 36.9195 26.5477 33.7342 25.5426 30.7622C24.9191 28.9185 23.8974 27.4745 22.9817 25.9779C22.3333 24.9182 21.4631 23.6092 21.0836 22.3831C20.878 21.719 20.9234 21.4286 20.9234 20.7538L20.9555 20.7219V20.5942L20.9874 20.5622V20.4664L21.0193 20.4345V20.3706L21.0513 20.3068V20.2747L21.0833 20.2109V20.179L21.115 20.147V20.115L21.147 20.0512V20.0192L21.179 19.9873V19.9553L21.2109 19.9234V19.8914L21.2429 19.8594C21.5845 19.0367 22.6781 18.1619 23.4318 17.6705C26.138 15.906 29.2792 16.7658 31.9567 18.1197C32.1913 18.2383 32.4424 18.3613 32.6679 18.4959C32.8641 18.613 33.2104 18.8319 33.4049 18.9049C33.4815 18.9943 36.4892 20.7982 36.6546 20.8943C37.1919 21.2065 39.5668 22.4818 40.1801 22.6619V22.6624Z" fill="url(#paint3_radial_1165_1559)"/>
<path fill-rule="evenodd" clip-rule="evenodd" d="M109.632 19.1899C109.632 18.1257 110.067 16.8873 110.741 16.1804C110.948 15.9639 110.983 15.8922 111.26 15.6773C112.728 14.5383 114.553 14.5046 116.05 15.645L116.816 16.4439C117.209 16.9669 117.479 17.5908 117.612 18.234C117.899 19.6298 117.506 21.2874 116.568 22.231C116.45 22.3498 116.463 22.382 116.319 22.4923C115.99 22.7431 115.942 22.8696 115.4 23.1385C114.078 23.7944 112.464 23.6885 111.316 22.7417C110.71 22.2414 110.275 21.69 109.978 20.951C109.793 20.4916 109.632 19.8396 109.632 19.1898L109.632 19.1899ZM117.486 12.357C117.123 12.1136 117.09 12.0608 116.643 11.7956C115.805 11.2984 114.423 10.8564 113.367 10.8564H112.761C111.156 10.8564 109.259 11.7088 108.17 12.7158C108.075 12.8042 108.013 12.8883 107.912 12.9684C107.768 13.0831 107.771 13.0798 107.657 13.2238C107.576 13.3246 107.491 13.3825 107.406 13.4839C104.86 16.5246 104.555 20.6309 106.588 24.0535C106.922 24.6152 107.119 24.7872 107.465 25.2198C107.983 25.8664 109.011 26.6361 109.738 27.0024C111.599 27.94 113.575 28.0806 115.562 27.2911C116.382 26.9652 116.821 26.6496 117.518 26.1824C117.518 27.6191 117.497 28.4545 116.425 29.527C116.22 29.7311 116.067 29.8475 115.835 30.0232C115.726 30.1062 115.618 30.1714 115.505 30.2361C115.394 30.2998 115.249 30.3843 115.128 30.434C114.287 30.7812 114.027 30.8761 113.016 30.8761C111.578 30.8761 110.198 29.9962 109.44 28.8645C108.236 29.671 107.036 30.4847 105.832 31.2911C105.867 31.4224 106.343 31.9806 106.434 32.0941C106.782 32.5283 107.437 33.1095 107.889 33.4487C111.093 35.8504 115.381 35.7777 118.563 33.3894L118.937 33.0928C119.074 32.9855 119.144 32.9045 119.279 32.7966C119.47 32.6441 119.903 32.1538 120.08 31.9371C120.946 30.8768 121.646 29.561 121.927 28.1651C122.074 27.4377 122.148 26.6486 122.148 25.7674C122.148 24.8821 122.18 24.0585 122.18 23.1492V10.7925H117.486V12.357L117.486 12.357Z" fill="#171637"/>
<path fill-rule="evenodd" clip-rule="evenodd" d="M75.1481 9.99401C75.1903 10.0426 75.181 10.0296 75.2084 10.0933L75.4873 10.932C75.5985 11.2654 75.6903 11.5584 75.8063 11.8902C76.0329 12.5382 76.2437 13.1686 76.4613 13.8214L77.7663 17.657H72.5618L75.1481 9.99401ZM63.9729 27.3955H69.273C69.3287 27.1566 69.4254 26.9571 69.5008 26.7292C69.5731 26.511 69.6481 26.2867 69.7242 26.0585L71.0931 21.9994H79.235C79.2844 22.2113 79.387 22.4716 79.4545 22.6741L81.055 27.3956H86.2913C86.282 27.2837 86.2233 27.1319 86.1821 27.0258C86.1303 26.8923 86.0975 26.784 86.0453 26.6518L84.4348 22.2275C84.3457 21.9891 84.2612 21.7315 84.1614 21.4792C83.9658 20.9844 83.8156 20.5053 83.6228 20.0064L83.0861 18.5315C82.9098 18.023 82.7179 17.5554 82.5516 17.0543C82.2761 16.2242 81.7788 14.9232 81.4745 14.1083L80.1412 10.4288C79.5585 8.74862 78.8166 6.91681 78.2568 5.2567C78.1916 5.06323 77.7463 3.9126 77.7342 3.76782H72.5935C72.5623 3.90202 72.5103 4.00093 72.4698 4.12295L71.5198 6.71705C71.3475 7.22787 71.1575 7.68338 70.9853 8.1942C70.6744 9.1162 70.2142 10.2156 69.9075 11.1395C69.8303 11.3722 69.7366 11.6188 69.6424 11.8643C69.2315 12.9349 68.8278 14.1696 68.4201 15.2079C67.9633 16.3711 67.5377 17.7117 67.079 18.8797L66.6681 20.0014C66.3024 20.9473 65.9636 22.0074 65.5916 22.948C65.493 23.1974 65.4244 23.4218 65.3271 23.6733C65.0491 24.3922 64.8005 25.1758 64.5154 25.8949L63.9729 27.3955Z" fill="#171637"/>
<path fill-rule="evenodd" clip-rule="evenodd" d="M130.769 24.3941C128.669 24.3941 128.936 22.3374 129.852 21.5618C130.975 20.6112 133.146 20.6747 134.509 20.1837C134.641 20.1361 134.8 20.0477 134.92 20.0199C134.92 20.7817 134.875 21.3089 134.642 21.8492C134.534 22.0987 134.398 22.3133 134.249 22.5104C134.062 22.7589 133.846 23.0148 133.606 23.2083C133.55 23.2538 133.532 23.2773 133.469 23.3271C132.736 23.9072 131.732 24.3941 130.769 24.3941H130.769ZM125.692 15.6456L129.46 16.6034C129.492 16.2148 130.13 15.3699 130.545 15.0705C131.546 14.3476 133.153 14.1712 134.113 14.8878C134.425 15.1209 134.888 15.6395 134.888 16.1563C134.888 17.0157 134.314 17.1612 133.579 17.3382C131.272 17.894 128.659 18.0233 126.573 19.464C125.97 19.8803 125.333 20.5871 125.044 21.2557C124.347 22.8705 124.584 25.1707 125.763 26.3664C126.079 26.6862 126.435 26.9339 126.837 27.1447C127.14 27.3039 127.579 27.4433 127.921 27.5297C129.637 27.9627 131.681 27.5942 133.223 26.9758C133.776 26.7541 134.147 26.5575 134.645 26.2269C134.732 26.1694 134.834 26.0774 134.92 26.0544V27.4274H139.39L139.39 19.3492C139.391 19.0782 139.356 18.9432 139.358 18.679C139.365 17.2102 139.484 16.014 138.987 14.5156C138.73 13.7422 138.346 12.9862 137.833 12.4765C137.615 12.2591 137.474 12.0935 137.212 11.9159C137.118 11.852 137.064 11.803 136.97 11.7435C135.363 10.7315 132.928 10.5812 131.088 10.8877C129.538 11.1459 128.387 11.7971 127.296 12.8754L126.955 13.2688C126.751 13.531 126.53 13.8257 126.364 14.1142C126.175 14.4412 125.719 15.3189 125.692 15.6455L125.692 15.6456Z" fill="#171637"/>
<path fill-rule="evenodd" clip-rule="evenodd" d="M155.833 24.3944C155.403 24.3944 154.98 24.2831 154.723 24.0988C154.456 23.9067 154.236 23.5929 154.236 23.1492C154.236 21.7032 155.255 21.1906 156.401 20.8755C157.359 20.6119 158.685 20.5026 159.572 20.1837C159.705 20.1363 159.864 20.048 159.983 20.02C159.983 20.8628 160.086 21.1244 159.717 21.8615C159.468 22.3596 159.182 22.7204 158.811 23.0938C158.459 23.4474 157.978 23.7353 157.536 23.9581C157.071 24.1914 156.382 24.3944 155.833 24.3944ZM150.756 15.6458C151.075 15.7201 151.372 15.8085 151.694 15.8886C152.024 15.9706 152.322 16.0453 152.64 16.1247C153.263 16.2804 153.892 16.4566 154.523 16.6036C154.594 16.2991 154.817 15.9736 154.97 15.7414C155.058 15.6076 155.151 15.5125 155.253 15.3851C155.451 15.1352 156.122 14.7351 156.467 14.6197C156.615 14.5702 156.829 14.5216 157.009 14.491C157.795 14.3574 158.552 14.4514 159.199 14.8977C159.873 15.3635 160.262 16.4402 159.656 16.9462C159.483 17.0902 159.157 17.2043 158.923 17.2677C158.375 17.4168 157.769 17.5315 157.178 17.6296C156.072 17.8131 154.8 18.0923 153.745 18.4434C152.399 18.8914 151.057 19.6392 150.347 20.8239C150.283 20.9291 150.197 21.0715 150.153 21.1734C149.583 22.5109 149.578 23.98 150.13 25.307C150.234 25.5554 150.391 25.812 150.541 26.014C152.421 28.55 156.961 27.8843 159.439 26.404C159.538 26.3446 159.608 26.3022 159.71 26.228C159.795 26.1658 159.89 26.0795 159.983 26.0545V27.4276H164.453L164.455 19.0929C164.454 18.8812 164.421 18.7616 164.422 18.5194C164.422 18.1157 164.454 17.7715 164.454 17.3379C164.454 16.3257 164.317 15.3088 164.058 14.5401C163.921 14.1324 163.668 13.512 163.445 13.1738C163.025 12.5381 162.673 12.173 162.033 11.7438C161.727 11.5381 161.346 11.3497 160.962 11.2191C159.662 10.7776 158.823 10.7605 157.461 10.7605C155.873 10.7605 154.284 11.3051 153.118 12.1969L152.36 12.8754C151.911 13.3606 151.462 14.0091 151.171 14.592C151.077 14.7812 150.774 15.4274 150.756 15.6457V15.6458Z" fill="#171637"/>
<path fill-rule="evenodd" clip-rule="evenodd" d="M92.7092 12.4845V10.7923H88.0156V27.3956H92.7092V17.7529C92.7092 17.3801 92.8552 16.9464 92.9856 16.6883C93.1322 16.3984 93.295 16.1143 93.515 15.8766C93.8796 15.4828 94.5839 15.007 95.3274 15.007C96.2455 15.007 96.7848 15.2075 97.3952 15.8129C97.8501 16.2641 98.1692 16.9163 98.1692 17.5932V27.5233H102.639V17.6571C102.639 15.0656 101.324 12.6374 99.3448 11.4366C97.772 10.4824 95.924 10.461 94.2841 11.2814C93.4091 11.7192 92.9317 12.3356 92.7092 12.4845Z" fill="#171637"/>
<path fill-rule="evenodd" clip-rule="evenodd" d="M150.342 55.4294H154.493V47.926C154.493 46.8465 154.538 46.168 154.941 45.4684C155.246 44.9372 155.984 44.4138 156.823 44.4138C157.369 44.4138 157.808 44.3933 158.303 44.6585C159.126 45.1 159.537 46.0156 159.537 47.032V55.4294H163.72V46.2657C163.72 44.9435 163.566 43.9209 162.986 42.8492C162.685 42.2939 162.409 42.0069 161.957 41.6111C161.845 41.5129 161.723 41.4193 161.591 41.338C160.496 40.6607 159.686 40.6143 158.388 40.6143C157.968 40.6143 157.413 40.7493 157.111 40.8697C156.638 41.0576 156.513 41.0974 156.069 41.393C155.473 41.7907 155.279 42.0478 154.868 42.4901L154.493 42.9132V35.6013H150.342V55.4295V55.4294Z" fill="#171637"/>
<path fill-rule="evenodd" clip-rule="evenodd" d="M64.4844 55.4296H68.6991V48.0858H77.767V44.3181H68.6991V40.1993H78.9804V36.4316H64.4844V55.4296Z" fill="#171637"/>
<path fill-rule="evenodd" clip-rule="evenodd" d="M124.446 43.9668C125.144 43.9668 125.478 43.938 126.128 44.2644C126.445 44.4234 126.725 44.6664 126.933 44.9288L127.224 45.3397C127.467 45.7047 127.767 46.5283 127.767 47.0002H121.605C121.618 46.3889 122.093 45.4363 122.489 44.9466C122.933 44.3955 123.688 43.9668 124.446 43.9668ZM117.518 48.1815C117.518 50.2297 118.202 52.1707 119.553 53.5217C120.348 54.3164 121.004 54.7741 122.038 55.1877C123.369 55.7197 124.156 55.7487 125.596 55.7487C126.424 55.7487 127.43 55.5238 128.151 55.2383C128.398 55.1402 128.602 55.0271 128.842 54.908C129.089 54.7853 129.257 54.6702 129.478 54.5226C129.706 54.3709 129.857 54.2459 130.062 54.0843C130.337 53.8667 130.897 53.3195 131.088 53.0347L128.725 50.9274C128.639 50.9847 128.501 51.1131 128.413 51.1899C128.311 51.2793 128.2 51.3634 128.091 51.4433C127.371 51.9726 126.485 52.3961 125.5 52.3961C124.753 52.3961 124.346 52.427 123.629 52.1275C122.96 51.8479 122.389 51.3825 122.062 50.7257C121.926 50.4536 121.698 49.9668 121.669 49.6184H131.215C131.899 49.6184 131.822 49.907 131.822 48.1816C131.822 47.0871 131.569 46.0074 131.291 45.168C130.905 43.9986 130.082 42.7616 129.109 42.0186C128.935 41.886 128.778 41.778 128.584 41.6489C127.677 41.0431 126.389 40.6143 125.149 40.6143C124.22 40.6143 123.695 40.5872 122.767 40.851C122.214 41.0084 121.983 41.1115 121.488 41.3593C120.631 41.7878 119.839 42.4235 119.246 43.1728C118.132 44.5802 117.518 46.2671 117.518 48.1816L117.518 48.1815Z" fill="#171637"/>
<path fill-rule="evenodd" clip-rule="evenodd" d="M94.1782 42.9132V40.8697H90.0273V55.4296H94.1782V47.9262C94.1782 46.8466 94.2238 46.1682 94.6261 45.4685C94.9315 44.9373 95.6701 44.414 96.5091 44.414C97.055 44.414 97.4938 44.3935 97.9884 44.6587C98.8118 45.1001 99.223 46.0157 99.223 47.0322V55.4296H103.406V46.2658C103.406 45.251 103.299 44.3434 102.977 43.5013L102.278 42.2524C102.173 42.1281 102.092 42.0293 101.977 41.9154C101.916 41.855 101.879 41.8145 101.818 41.7551L101.277 41.3381C101.146 41.2575 101.011 41.167 100.873 41.1033C99.8359 40.6229 99.2057 40.6143 98.0735 40.6143C97.6537 40.6143 97.099 40.7493 96.7962 40.8697C94.908 41.6206 94.5533 42.6619 94.1781 42.9132L94.1782 42.9132Z" fill="#171637"/>
<path fill-rule="evenodd" clip-rule="evenodd" d="M142.551 27.3956C142.551 27.4691 142.573 27.4914 142.647 27.4914H146.797C146.871 27.4914 146.893 27.4691 146.893 27.3956V2.10755C146.893 2.03395 146.871 2.01172 146.797 2.01172H142.551V27.3956H142.551Z" fill="#171637"/>
<path fill-rule="evenodd" clip-rule="evenodd" d="M134.153 48.2135C134.153 49.4259 134.415 50.3927 134.777 51.2605C135.439 52.8451 136.574 54.0204 138.058 54.8446L138.677 55.1515C139.999 55.7225 140.849 55.7488 142.263 55.7488C143.965 55.7488 145.365 55.133 146.647 54.0986C146.897 53.8971 147.533 53.3338 147.691 53.0987L145.296 50.6401L144.825 51.0315C144.202 51.5878 143.163 52.1727 142.231 52.1727C141.349 52.1727 141.056 52.1899 140.251 51.7896C139.474 51.4031 138.906 50.7385 138.586 49.9427C138.162 48.8892 138.152 47.506 138.577 46.4433C138.75 46.0086 139.105 45.4494 139.413 45.1408C139.893 44.6611 140.771 44.1904 141.496 44.1904C142.486 44.1904 142.995 44.191 143.853 44.7394C144.14 44.9226 144.563 45.2613 144.809 45.5075C144.904 45.6034 144.974 45.7415 145.136 45.755C145.176 45.6069 145.329 45.515 145.432 45.4122L146.98 43.735C147.18 43.5354 147.467 43.1795 147.627 43.0729C147.512 42.9011 147.326 42.7078 147.161 42.5805C147.057 42.4998 147.011 42.4291 146.915 42.3478C146.816 42.2645 146.729 42.2039 146.629 42.1223C145.458 41.1599 143.842 40.6143 142.294 40.6143C141.027 40.6143 140.285 40.6189 139.066 41.0572L138.118 41.4825C137.622 41.7851 137.511 41.8153 136.994 42.2101C136.937 42.2534 136.928 42.2658 136.874 42.3135C136.811 42.3681 136.793 42.3719 136.731 42.4264C136.646 42.501 136.593 42.5759 136.506 42.6482C136.193 42.9069 135.649 43.5742 135.436 43.909C134.646 45.1459 134.152 46.5581 134.152 48.2134L134.153 48.2135Z" fill="#171637"/>
<path fill-rule="evenodd" clip-rule="evenodd" d="M107.653 40.8697H105.896V44.4139H107.653V51.6938C107.653 52.2497 107.77 52.9571 107.93 53.364C108.066 53.7096 108.209 54.0219 108.419 54.3123C108.77 54.7978 109.227 55.1437 109.81 55.3797C110.869 55.8086 112.787 55.7808 113.867 55.4175C114.478 55.2119 114.612 55.1425 115.156 54.8547V51.5341C115.053 51.558 114.87 51.6497 114.772 51.6928C114.056 52.0094 113.649 52.0129 112.889 52.0129C112.546 52.0129 112.271 51.84 112.098 51.6544C111.93 51.4742 111.803 51.138 111.803 50.7996V44.4138H115.22V40.8696H111.803V37.1658H107.653V40.8696L107.653 40.8697Z" fill="#171637"/>
<path fill-rule="evenodd" clip-rule="evenodd" d="M82.0137 55.4294H86.1645V40.8696H82.0137V55.4294Z" fill="#171637"/>
<path fill-rule="evenodd" clip-rule="evenodd" d="M81.918 39.2733H86.2923V35.6013H81.918V39.2733Z" fill="#171637"/>
<defs>
<linearGradient id="paint0_linear_1165_1559" x1="5.46088" y1="15.819" x2="46.8848" y2="15.819" gradientUnits="userSpaceOnUse">
<stop stop-color="#C62B40"/>
<stop offset="1" stop-color="#D73738"/>
</linearGradient>
<radialGradient id="paint1_radial_1165_1559" cx="0" cy="0" r="1" gradientUnits="userSpaceOnUse" gradientTransform="translate(22.2861 8.43805) scale(20.6332 12.7878)">
<stop stop-color="#FFCC4C"/>
<stop offset="1" stop-color="#F49117"/>
</radialGradient>
<radialGradient id="paint2_radial_1165_1559" cx="0" cy="0" r="1" gradientUnits="userSpaceOnUse" gradientTransform="translate(36.5671 48.1314) scale(8.51603 11.8641)">
<stop stop-color="#F9BB09"/>
<stop offset="1" stop-color="#F8AA0E"/>
</radialGradient>
<radialGradient id="paint3_radial_1165_1559" cx="0" cy="0" r="1" gradientUnits="userSpaceOnUse" gradientTransform="translate(35.6174 25.3928) rotate(41.6716) scale(17.9733 18.3029)">
<stop stop-color="#FFD56B"/>
<stop offset="1" stop-color="#FF8C08"/>
</radialGradient>
</defs>
</svg>
